<svg width="22" height="22" viewBox="0 0 22 22" fill="none" xmlns="http://www.w3.org/2000/svg">
  <path d="M3.20226 20.6855H1.64341L2.74571 19.5832C3.34005 18.9889 3.7112 18.2158 3.81098 17.3772C2.26005 16.3594 1.12594 15.0204 0.518853 13.4847C-0.0878053 11.9503 -0.164041 10.2611 0.29841 8.59971C0.853283 6.60626 2.15472 4.7893 3.9629 3.48348C5.92781 2.06453 8.3739 1.31448 11.0368 1.31448C14.3913 1.31448 17.2188 2.27826 19.2134 4.10154C21.0104 5.74416 22 7.95982 22 10.3404C22 11.497 21.7645 12.6224 21.3001 13.6853C20.8195 14.7852 20.1157 15.7645 19.2083 16.5961C17.211 18.4266 14.3853 19.3941 11.0367 19.3941C9.79367 19.3941 8.49654 19.2282 7.33845 18.9237C6.24227 20.0482 4.75685 20.6855 3.20226 20.6855ZM11.0368 2.60589C5.6973 2.60589 2.42096 5.79018 1.54251 8.94602C0.712391 11.9283 1.93608 14.7463 4.81591 16.4842L5.13769 16.6783L5.12779 17.054C5.10816 17.7976 4.93089 18.5138 4.61359 19.1612C5.38624 18.8998 6.08734 18.4259 6.63636 17.7772L6.90936 17.4547L7.31422 17.5758C8.45035 17.9156 9.77236 18.1027 11.0368 18.1027C17.682 18.1027 20.7086 14.079 20.7086 10.3404C20.7086 8.32688 19.8682 6.4497 18.3421 5.05473C16.5895 3.4527 14.0633 2.60589 11.0368 2.60589Z" fill="#CCCCCC"/>
</svg>