<svg width="22" height="22" viewBox="0 0 22 22" fill="none" xmlns="http://www.w3.org/2000/svg">
  <path d="M21.9924 10.9941L11.9663 0V6.58563H10.8016C7.91649 6.58563 5.20392 7.7092 3.16374 9.74937C1.12357 11.7896 0 14.5021 0 17.3874V22L1.92419 19.8917C4.49812 17.0717 8.15181 15.4404 11.9663 15.4033V21.9884L21.9924 10.9941ZM1.28923 18.6857V17.3874C1.28923 14.8465 2.27869 12.4576 4.07532 10.6609C5.87195 8.86432 8.26074 7.87486 10.8016 7.87486H13.2554V3.32689L20.2478 10.9941L13.2554 18.6615V14.1136H12.0987C8.02945 14.1136 4.11627 15.7744 1.28923 18.6857Z" fill="#CCCCCC"/>
</svg>
